<svg xmlns="http://www.w3.org/2000/svg" width="282.2" height="74.111"><path d="M3.932 74.11c-2.3 0-3.932-1-3.932-4.054v-6.435a.275.275 0 01.287-.271h1.412a.275.275 0 01.287.271v6.435c0 1.633.4 2.407 1.945 2.407s1.94-.774 1.94-2.407v-6.435a.275.275 0 01.286-.271h1.416a.274.274 0 01.285.271v6.435c0 3.051-1.63 4.054-3.928 4.054m17.683-.114H20.17a.767.767 0 01-.872-.517l-3.172-6.977c-.043-.086-.085-.115-.128-.115s-.071.03-.071.115v7.207a.276.276 0 01-.273.288h-1.213a.287.287 0 01-.286-.288v-9.786a.573.573 0 01.572-.573h1.542c.3 0 .458.086.63.458l3.329 7.366c.027.072.07.113.113.113s.072-.041.072-.127v-7.539a.263.263 0 01.272-.271h1.227a.263.263 0 01.273.271v9.8a.574.574 0 01-.572.573m12.95-.083a13.571 13.571 0 01-2.716.2c-1.857 0-3.3-.5-3.3-2.937v-5c0-2.435 1.443-2.936 3.3-2.936a13.412 13.412 0 012.716.2c.214.028.284.1.284.3v.916a.286.286 0 01-.284.287h-2.915c-.829 0-1.131.286-1.131 1.232v1.549h3.872a.287.287 0 01.286.287v1.03a.288.288 0 01-.286.288h-3.872v1.844c0 .944.3 1.233 1.131 1.233h2.915a.284.284 0 01.284.285v.918c0 .2-.07.271-.284.3m22.182-10.242l-2.343 8.983a2.079 2.079 0 01-3.971 0l-2.343-8.983c0-.028-.016-.044-.016-.072a.244.244 0 01.256-.243h1.515a.3.3 0 01.272.243l2.071 8.61c.043.172.086.231.23.231s.184-.058.228-.231l2.072-8.61a.3.3 0 01.272-.243h1.514a.243.243 0 01.256.243c0 .027-.014.044-.014.072m7.353 10.331h-1.413a.287.287 0 01-.286-.288V63.621a.274.274 0 01.286-.271h1.413a.275.275 0 01.286.271v10.088a.289.289 0 01-.286.288m12.671-.086a13.531 13.531 0 01-2.714.2c-1.857 0-3.3-.5-3.3-2.937v-5c0-2.435 1.443-2.936 3.3-2.936a13.373 13.373 0 012.714.2c.216.028.286.1.286.3v.916a.287.287 0 01-.286.287H73.85c-.828 0-1.128.286-1.128 1.232v1.549h3.872a.287.287 0 01.286.287v1.03a.288.288 0 01-.286.288h-3.872v1.844c0 .944.3 1.233 1.128 1.233h2.914a.285.285 0 01.286.285v.918c0 .2-.07.271-.286.3m21.87.09h-1.515a.306.306 0 01-.273-.244l-.655-2.722h-3.287l-.657 2.722a.305.305 0 01-.273.244h-1.515a.245.245 0 01-.257-.244.631.631 0 00.014-.072l2.343-8.983a2.081 2.081 0 013.973 0l2.344 8.983a.662.662 0 00.013.072.245.245 0 01-.256.244m-2.629-11.378h-1.229c-.171 0-.214-.058-.329-.186l-1.7-1.776a.175.175 0 01-.058-.115c0-.058.058-.1.158-.1h1.514c.186 0 .243.058.371.217l1.343 1.719a.207.207 0 01.057.143c0 .058-.044.1-.128.1m-1.229 2.522c-.043-.171-.085-.228-.228-.228s-.186.057-.229.228l-1.029 4.255h2.514zm25.191-1.478l-2.342 8.983a2.081 2.081 0 01-3.974 0l-2.343-8.983c0-.028-.016-.044-.016-.072a.245.245 0 01.258-.243h1.515a.3.3 0 01.271.243l2.071 8.61c.043.172.085.231.229.231s.186-.058.228-.231l2.072-8.61a.3.3 0 01.272-.243h1.514a.245.245 0 01.258.243c0 .027-.015.044-.015.072m9.07 10.446c-2.358 0-4.072-1.318-4.072-4.471v-1.935c0-3.151 1.714-4.469 4.072-4.469s4.072 1.318 4.072 4.469v1.935c0 3.153-1.714 4.471-4.072 4.471m2.072-6.406c0-1.891-.672-2.736-2.072-2.736s-2.072.845-2.072 2.736v1.935c0 1.891.671 2.736 2.072 2.736s2.072-.845 2.072-2.736zm11.939 6.405c-2.3 0-3.931-1-3.931-4.054v-6.435a.275.275 0 01.286-.271h1.415a.275.275 0 01.286.271v6.435c0 1.633.4 2.407 1.944 2.407s1.942-.774 1.942-2.407v-6.435a.275.275 0 01.286-.271h1.413a.275.275 0 01.286.271v6.435c0 3.051-1.629 4.054-3.928 4.054m12.897.001a10.973 10.973 0 01-2.53-.257.307.307 0 01-.27-.286v-1.034a.27.27 0 01.27-.271h.03c.572.073 2 .144 2.53.144 1.27 0 1.657-.46 1.657-1.291 0-.559-.272-.845-1.215-1.4l-1.886-1.131a2.822 2.822 0 01-1.687-2.624c0-1.573.914-2.72 3.573-2.72a15.932 15.932 0 012.743.257.29.29 0 01.259.273v1.059a.246.246 0 01-.243.259h-.03a31.455 31.455 0 00-2.814-.144c-1.058 0-1.5.372-1.5 1.016 0 .474.243.76 1.173 1.277l1.715.959c1.572.874 1.985 1.792 1.985 2.923 0 1.448-.9 3-3.757 3m20.748-4.093c-.371 0-.943-.042-1.27-.056v3.738a.277.277 0 01-.274.288h-1.428a.288.288 0 01-.286-.288v-9.858c0-.285.172-.386.457-.429a19.373 19.373 0 012.8-.185c2.2 0 4.115.773 4.115 3.309v.129c0 2.536-1.914 3.353-4.115 3.353m2.143-3.481c0-1.2-.713-1.662-2.143-1.662-.3 0-1.014.03-1.27.057v3.411c.227.014 1.027.043 1.27.043 1.543 0 2.143-.572 2.143-1.72zm15.311 7.449h-1.746c-.155 0-.214-.143-.286-.288l-2.056-3.825h-.2c-.371 0-.943-.044-1.271-.056v3.881a.276.276 0 01-.272.288h-1.429a.287.287 0 01-.286-.288v-9.857c0-.285.171-.386.457-.429a19.376 19.376 0 012.8-.185c2.2 0 4.114.786 4.114 3.237v.129a2.907 2.907 0 01-1.928 2.924l2.243 4.183a.205.205 0 01.027.117.157.157 0 01-.172.171m-2.141-7.527c0-1.073-.714-1.533-2.144-1.533-.3 0-1.014.029-1.271.058v3.224c.228.015 1.028.043 1.271.043 1.472 0 2.144-.4 2.144-1.664zm11.657 7.64c-2.357 0-4.072-1.318-4.072-4.471v-1.935c0-3.151 1.715-4.469 4.072-4.469s4.073 1.318 4.073 4.469v1.935c0 3.153-1.716 4.471-4.073 4.471m2.071-6.406c0-1.891-.671-2.736-2.071-2.736s-2.072.845-2.072 2.736v1.935c0 1.891.671 2.736 2.072 2.736s2.071-.845 2.071-2.736zm14.14-2.693h-2.5v8.7a.288.288 0 01-.285.288h-1.414a.288.288 0 01-.286-.288v-8.7h-2.5a.263.263 0 01-.284-.258v-1.133a.274.274 0 01.284-.271h6.987a.274.274 0 01.285.271v1.133a.263.263 0 01-.285.258m11.594 8.9a13.51 13.51 0 01-2.714.2c-1.858 0-3.3-.5-3.3-2.937v-5c0-2.435 1.443-2.936 3.3-2.936a13.449 13.449 0 012.714.2c.215.029.286.1.286.3v.916a.287.287 0 01-.286.287h-2.914c-.829 0-1.128.286-1.128 1.232v1.548h3.871a.287.287 0 01.286.288v1.03a.288.288 0 01-.286.288h-3.871v1.848c0 .944.3 1.233 1.128 1.233h2.914a.285.285 0 01.286.284v.919c0 .2-.071.271-.286.3m-.656-13.255l-1.686 1.776c-.114.129-.172.187-.343.187h-1.229c-.085 0-.128-.042-.128-.1a.211.211 0 01.057-.143l1.357-1.719c.128-.158.186-.217.371-.217h1.5c.1 0 .157.044.157.1a.17.17 0 01-.056.115m13.755 13.215a15.654 15.654 0 01-3.115.243c-1.544 0-3.83-1.017-3.83-4.4v-2.062c0-3.4 2.171-4.413 3.873-4.413a18.819 18.819 0 013.072.258c.184.041.271.114.271.3v.962c0 .2-.057.3-.286.3h-.043a35.321 35.321 0 00-3.015-.115c-.957 0-1.873.672-1.873 2.709v2.062c0 2.037.987 2.7 1.83 2.7.528 0 .971-.016 1.415-.045v-3.653a.275.275 0 01.271-.286h1.414a.287.287 0 01.286.286v4.813a.318.318 0 01-.271.345m12.654.036a13.561 13.561 0 01-2.715.2c-1.857 0-3.3-.5-3.3-2.937v-5c0-2.435 1.444-2.936 3.3-2.936a13.4 13.4 0 012.715.2c.214.028.284.1.284.3v.916a.286.286 0 01-.284.287H254.3c-.83 0-1.129.286-1.129 1.232v1.549h3.871a.287.287 0 01.286.287v1.03a.288.288 0 01-.286.288h-3.871v1.844c0 .944.3 1.233 1.129 1.233h2.914a.284.284 0 01.284.285v.918c0 .2-.071.271-.284.3m13.981.089h-1.742c-.157 0-.215-.143-.287-.288l-2.057-3.825h-.2c-.371 0-.944-.044-1.272-.056v3.881a.276.276 0 01-.272.288h-1.428a.287.287 0 01-.286-.288v-9.857c0-.285.172-.386.457-.429a19.382 19.382 0 012.8-.185c2.2 0 4.115.786 4.115 3.237v.129a2.907 2.907 0 01-1.929 2.924l2.243 4.183a.2.2 0 01.027.117.157.157 0 01-.171.171m-2.142-7.523c0-1.073-.714-1.533-2.144-1.533-.3 0-1.015.029-1.272.058v3.224c.229.015 1.029.043 1.272.043 1.472 0 2.144-.4 2.144-1.664z" fill="#6ec8ff"/><path fill="#003264" d="M0 .635h13.15v49.432H0zm125.647 41.454c-4.255 0-11.438-.4-13.133-1.216a4.346 4.346 0 01-2.585-4.282v-7.037h25.636l-.048-8.163v-.655H109.93l-.049-6.619a4.349 4.349 0 012.579-4.278c1.7-.82 7.338-1.346 13.268-1.346 6.788 0 17.482.934 17.482.934l1.221-8.025a139.017 139.017 0 00-19.928-1.406c-8.682 0-19.367.764-22.979 2.812-3.391 1.918-5.113 5.285-5.113 10.006v24.475l.049.276v.34c0 4.72 1.719 8.088 5.113 10.007 3.618 2.045 14.018 2.8 21.688 2.8s21.219-1.4 21.219-1.4l-1.222-8.287s-9.442 1.064-17.611 1.064m28.034-16.37c0 10.37 2.111 18.416 12.926 22.888 10.356 4.282 35.508.722 35.508.722l-1.147-8.529c-22.416 1.95-33.734 3.228-33.734-15.04 0-18.168 8.614-18.182 33.734-15.882l1.147-8.32s-25.152-3.771-35.508.51c-10.815 4.473-12.926 13.281-12.926 23.651M255.397 40.16a138.14 138.14 0 013.225 9.908h12.743s-1.178-3.946-3.416-9.908z"/><path d="M282.194 26.642H262.32c-3.926-8.567-9.036-18.081-15.211-26.006h-13.211c-15.4 19.719-23.841 49.416-23.858 49.432h12.345c.721-2.533 1.5-4.957 2.305-7.3 2.985-8.044 9.458-7.314 29.923-7.314 2.448 0 15.014-.03 15.014-.03 13.265 0 12.566-8.78 12.566-8.78m-50.932 0a120.97 120.97 0 019.242-16.408 122.7 122.7 0 019.237 16.408zM28.849 50.064h13.152V39.382a111.747 111.747 0 0018.484.363c8.827-.613 25.857-3.276 25.857-19.944C86.342 5.662 74.218.087 57.25.087a219.7 219.7 0 00-28.4 2.135zM52.695 31.09a101.546 101.546 0 01-10.694-.531V9.688c7.392-.73 30.505-3.6 30.505 10.068 0 9.172-10.349 11.28-19.811 11.338" fill="#003264"/></svg>